<?xml version="1.0" standalone="no"?>
<!DOCTYPE svg PUBLIC "-//W3C//DTD SVG 20010904//EN"
 "http://www.w3.org/TR/2001/REC-SVG-20010904/DTD/svg10.dtd">
<svg version="1.0" xmlns="http://www.w3.org/2000/svg"
 width="700.000000pt" height="700.000000pt" viewBox="0 0 700.000000 700.000000"
 preserveAspectRatio="xMidYMid meet">
<metadata>
Created by potrace 1.11, written by Peter Selinger 2001-2013
</metadata>
<g transform="translate(0.000000,700.000000) scale(0.100000,-0.100000)"
fill="#000000" stroke="none">
<path d="M1710 5755 c-263 -69 -357 -409 -167 -605 75 -78 144 -108 255 -115
137 -8 280 78 341 205 l26 55 1402 0 c771 -1 1406 -4 1410 -8 4 -4 -256 -271
-579 -594 l-585 -585 -54 19 c-94 35 -215 27 -306 -21 -78 -40 -162 -152 -181
-241 -14 -63 -5 -165 17 -218 l19 -44 -638 -638 -639 -639 -53 26 c-88 44
-145 53 -232 37 -323 -57 -415 -478 -145 -665 181 -125 445 -55 539 144 l25
52 1405 0 1405 0 19 -45 c46 -114 176 -204 305 -213 225 -15 407 163 394 385
-14 258 -281 421 -515 315 -75 -34 -150 -105 -179 -170 -12 -26 -25 -49 -29
-52 -12 -8 -2798 -6 -2805 2 -9 9 1289 1308 1307 1308 8 0 18 -4 24 -9 13 -14
122 -29 169 -24 66 7 132 32 184 72 62 46 84 74 119 148 23 49 27 71 26 143 0
51 -7 102 -17 129 l-16 44 574 574 575 574 42 -23 c24 -12 48 -23 53 -24 6 -2
24 -7 40 -12 48 -15 155 -6 217 18 100 37 206 157 223 251 39 212 -64 388
-261 445 -163 47 -352 -39 -425 -194 l-24 -51 -1408 -1 c-1332 0 -1408 1
-1413 18 -32 98 -125 187 -234 224 -54 18 -148 20 -210 3z"/>
</g>
</svg>
