<?xml version="1.0" encoding="UTF-8" standalone="no"?>
<svg
   xmlns:dc="http://purl.org/dc/elements/1.1/"
   xmlns:cc="http://creativecommons.org/ns#"
   xmlns:rdf="http://www.w3.org/1999/02/22-rdf-syntax-ns#"
   xmlns:svg="http://www.w3.org/2000/svg"
   xmlns="http://www.w3.org/2000/svg"
   xmlns:sodipodi="http://sodipodi.sourceforge.net/DTD/sodipodi-0.dtd"
   xmlns:inkscape="http://www.inkscape.org/namespaces/inkscape"
   version="1.1"
   id="Capa_1"
   x="0px"
   y="0px"
   width="438.54901"
   height="877"
   viewBox="0 0 438.549 876.99998"
   xml:space="preserve"
   sodipodi:docname="github_combined.svg"
   inkscape:version="1.0.2 (e86c870879, 2021-01-15)"><metadata
     id="metadata5086"><rdf:RDF><cc:Work
         rdf:about=""><dc:format>image/svg+xml</dc:format><dc:type
           rdf:resource="http://purl.org/dc/dcmitype/StillImage" /><dc:title></dc:title></cc:Work></rdf:RDF></metadata><defs
     id="defs5084"><filter
       style="color-interpolation-filters:sRGB"
       inkscape:label="Colorize"
       id="filter5470"><feComposite
         in2="SourceGraphic"
         operator="arithmetic"
         k1="1.6"
         k2="1.4"
         result="composite1"
         id="feComposite5456"
         k3="0"
         k4="0" /><feColorMatrix
         in="composite1"
         values="1"
         type="saturate"
         result="colormatrix1"
         id="feColorMatrix5458" /><feFlood
         flood-opacity="1"
         flood-color="rgb(20,20,20)"
         result="flood1"
         id="feFlood5460" /><feBlend
         in="flood1"
         in2="colormatrix1"
         mode="normal"
         result="blend1"
         id="feBlend5462" /><feBlend
         in2="blend1"
         mode="normal"
         result="blend2"
         id="feBlend5464" /><feColorMatrix
         in="blend2"
         values="1"
         type="saturate"
         result="colormatrix2"
         id="feColorMatrix5466" /><feComposite
         in="colormatrix2"
         in2="SourceGraphic"
         operator="in"
         result="fbSourceGraphic"
         id="feComposite5468" /><feColorMatrix
         result="fbSourceGraphicAlpha"
         in="fbSourceGraphic"
         values="0 0 0 -1 0 0 0 0 -1 0 0 0 0 -1 0 0 0 0 1 0"
         id="feColorMatrix5472" /><feComposite
         in2="fbSourceGraphic"
         id="feComposite5474"
         operator="arithmetic"
         k1="1.6"
         k2="1.4"
         result="composite1"
         in="fbSourceGraphic"
         k3="0"
         k4="0" /><feColorMatrix
         id="feColorMatrix5476"
         in="composite1"
         values="1"
         type="saturate"
         result="colormatrix1" /><feFlood
         id="feFlood5478"
         flood-opacity="1"
         flood-color="rgb(20,20,20)"
         result="flood1" /><feBlend
         in2="colormatrix1"
         id="feBlend5480"
         in="flood1"
         mode="normal"
         result="blend1" /><feBlend
         in2="blend1"
         id="feBlend5482"
         mode="normal"
         result="blend2" /><feColorMatrix
         id="feColorMatrix5484"
         in="blend2"
         values="1"
         type="saturate"
         result="colormatrix2" /><feComposite
         in2="fbSourceGraphic"
         id="feComposite5486"
         in="colormatrix2"
         operator="in"
         result="fbSourceGraphic" /><feColorMatrix
         result="fbSourceGraphicAlpha"
         in="fbSourceGraphic"
         values="0 0 0 -1 0 0 0 0 -1 0 0 0 0 -1 0 0 0 0 1 0"
         id="feColorMatrix5507" /><feComposite
         in2="fbSourceGraphic"
         id="feComposite5509"
         operator="arithmetic"
         k1="1.6"
         k2="1.4"
         result="composite1"
         in="fbSourceGraphic"
         k3="0"
         k4="0" /><feColorMatrix
         id="feColorMatrix5511"
         in="composite1"
         values="1"
         type="saturate"
         result="colormatrix1" /><feFlood
         id="feFlood5513"
         flood-opacity="1"
         flood-color="rgb(50,50,50)"
         result="flood1" /><feBlend
         in2="colormatrix1"
         id="feBlend5515"
         in="flood1"
         mode="normal"
         result="blend1" /><feBlend
         in2="blend1"
         id="feBlend5517"
         mode="normal"
         result="blend2" /><feColorMatrix
         id="feColorMatrix5519"
         in="blend2"
         values="1"
         type="saturate"
         result="colormatrix2" /><feComposite
         in2="fbSourceGraphic"
         id="feComposite5521"
         in="colormatrix2"
         operator="in"
         result="fbSourceGraphic" /><feColorMatrix
         result="fbSourceGraphicAlpha"
         in="fbSourceGraphic"
         values="0 0 0 -1 0 0 0 0 -1 0 0 0 0 -1 0 0 0 0 1 0"
         id="feColorMatrix5523" /><feComposite
         in2="fbSourceGraphic"
         id="feComposite5525"
         operator="arithmetic"
         k1="1.6"
         k2="1.4"
         result="composite1"
         in="fbSourceGraphic"
         k3="0"
         k4="0" /><feColorMatrix
         id="feColorMatrix5527"
         in="composite1"
         values="1"
         type="saturate"
         result="colormatrix1" /><feFlood
         id="feFlood5529"
         flood-opacity="1"
         flood-color="rgb(50,50,50)"
         result="flood1" /><feBlend
         in2="colormatrix1"
         id="feBlend5531"
         in="flood1"
         mode="normal"
         result="blend1" /><feBlend
         in2="blend1"
         id="feBlend5533"
         mode="normal"
         result="blend2" /><feColorMatrix
         id="feColorMatrix5535"
         in="blend2"
         values="1"
         type="saturate"
         result="colormatrix2" /><feComposite
         in2="fbSourceGraphic"
         id="feComposite5537"
         in="colormatrix2"
         operator="in"
         result="fbSourceGraphic" /><feColorMatrix
         result="fbSourceGraphicAlpha"
         in="fbSourceGraphic"
         values="0 0 0 -1 0 0 0 0 -1 0 0 0 0 -1 0 0 0 0 1 0"
         id="feColorMatrix5603" /><feComposite
         in2="fbSourceGraphic"
         id="feComposite5605"
         operator="arithmetic"
         k1="1.6"
         k2="1.4"
         result="composite1"
         in="fbSourceGraphic"
         k3="0"
         k4="0" /><feColorMatrix
         id="feColorMatrix5607"
         in="composite1"
         values="1"
         type="saturate"
         result="colormatrix1" /><feFlood
         id="feFlood5609"
         flood-opacity="1"
         flood-color="rgb(34,34,34)"
         result="flood1" /><feBlend
         in2="colormatrix1"
         id="feBlend5611"
         in="flood1"
         mode="normal"
         result="blend1" /><feBlend
         in2="blend1"
         id="feBlend5613"
         mode="normal"
         result="blend2" /><feColorMatrix
         id="feColorMatrix5615"
         in="blend2"
         values="1"
         type="saturate"
         result="colormatrix2" /><feComposite
         in2="fbSourceGraphic"
         id="feComposite5617"
         in="colormatrix2"
         operator="in"
         result="composite2" /></filter><filter
       style="color-interpolation-filters:sRGB"
       inkscape:label="Colorize"
       id="filter6254"><feComposite
         in2="SourceGraphic"
         operator="arithmetic"
         k1="1.6"
         k2="1.4"
         result="composite1"
         id="feComposite6240"
         k3="0"
         k4="0" /><feColorMatrix
         in="composite1"
         values="1"
         type="saturate"
         result="colormatrix1"
         id="feColorMatrix6242" /><feFlood
         flood-opacity="1"
         flood-color="rgb(134,134,134)"
         result="flood1"
         id="feFlood6244" /><feBlend
         in="flood1"
         in2="colormatrix1"
         mode="normal"
         result="blend1"
         id="feBlend6246" /><feBlend
         in2="blend1"
         mode="normal"
         result="blend2"
         id="feBlend6248" /><feColorMatrix
         in="blend2"
         values="1"
         type="saturate"
         result="colormatrix2"
         id="feColorMatrix6250" /><feComposite
         in="colormatrix2"
         in2="SourceGraphic"
         operator="in"
         result="composite2"
         id="feComposite6252" /></filter></defs><sodipodi:namedview
     pagecolor="#ffffff"
     bordercolor="#666666"
     borderopacity="1"
     objecttolerance="10"
     gridtolerance="10"
     guidetolerance="10"
     inkscape:pageopacity="0"
     inkscape:pageshadow="2"
     inkscape:window-width="3838"
     inkscape:window-height="2124"
     id="namedview5082"
     showgrid="false"
     inkscape:zoom="2.004337"
     inkscape:cx="219.27451"
     inkscape:cy="498.66864"
     inkscape:window-x="0"
     inkscape:window-y="34"
     inkscape:window-maximized="1"
     inkscape:current-layer="Capa_1"
     inkscape:document-rotation="0" /><g
     id="g5049"
     style="filter:url(#filter5470)"><path
       d="M 409.132,114.573 C 389.524,80.977 362.927,54.379 329.334,34.773 295.736,15.166 259.057,5.365 219.271,5.365 c -39.781,0 -76.472,9.804 -110.063,29.408 -33.596,19.605 -60.192,46.204 -79.8,79.8 C 9.803,148.168 0,184.854 0,224.63 c 0,47.78 13.94,90.745 41.827,128.906 27.884,38.164 63.906,64.572 108.063,79.227 5.14,0.954 8.945,0.283 11.419,-1.996 2.475,-2.282 3.711,-5.14 3.711,-8.562 0,-0.571 -0.049,-5.708 -0.144,-15.417 -0.098,-9.709 -0.144,-18.179 -0.144,-25.406 l -6.567,1.136 c -4.187,0.767 -9.469,1.092 -15.846,1 -6.374,-0.089 -12.991,-0.757 -19.842,-1.999 -6.854,-1.231 -13.229,-4.086 -19.13,-8.559 -5.898,-4.473 -10.085,-10.328 -12.56,-17.556 l -2.855,-6.57 c -1.903,-4.374 -4.899,-9.233 -8.992,-14.559 -4.093,-5.331 -8.232,-8.945 -12.419,-10.848 l -1.999,-1.431 c -1.332,-0.951 -2.568,-2.098 -3.711,-3.429 -1.142,-1.331 -1.997,-2.663 -2.568,-3.997 -0.572,-1.335 -0.098,-2.43 1.427,-3.289 1.525,-0.859 4.281,-1.276 8.28,-1.276 l 5.708,0.853 c 3.807,0.763 8.516,3.042 14.133,6.851 5.614,3.806 10.229,8.754 13.846,14.842 4.38,7.806 9.657,13.754 15.846,17.847 6.184,4.093 12.419,6.136 18.699,6.136 6.28,0 11.704,-0.476 16.274,-1.423 4.565,-0.952 8.848,-2.383 12.847,-4.285 1.713,-12.758 6.377,-22.559 13.988,-29.41 -10.848,-1.14 -20.601,-2.857 -29.264,-5.14 -8.658,-2.286 -17.605,-5.996 -26.835,-11.14 -9.235,-5.137 -16.896,-11.516 -22.985,-19.126 -6.09,-7.614 -11.088,-17.61 -14.987,-29.979 -3.901,-12.374 -5.852,-26.648 -5.852,-42.826 0,-23.035 7.52,-42.637 22.557,-58.817 -7.044,-17.318 -6.379,-36.732 1.997,-58.24 5.52,-1.715 13.706,-0.428 24.554,3.853 10.85,4.283 18.794,7.952 23.84,10.994 5.046,3.041 9.089,5.618 12.135,7.708 17.705,-4.947 35.976,-7.421 54.818,-7.421 18.842,0 37.117,2.474 54.823,7.421 l 10.849,-6.849 c 7.419,-4.57 16.18,-8.758 26.262,-12.565 10.088,-3.805 17.802,-4.853 23.134,-3.138 8.562,21.509 9.325,40.922 2.279,58.24 15.036,16.18 22.559,35.787 22.559,58.817 0,16.178 -1.958,30.497 -5.853,42.966 -3.9,12.471 -8.941,22.457 -15.125,29.979 -6.191,7.521 -13.901,13.85 -23.131,18.986 -9.232,5.14 -18.182,8.85 -26.84,11.136 -8.662,2.286 -18.415,4.004 -29.263,5.146 9.894,8.562 14.842,22.077 14.842,40.539 v 60.237 c 0,3.422 1.19,6.279 3.572,8.562 2.379,2.279 6.136,2.95 11.276,1.995 44.163,-14.653 80.185,-41.062 108.068,-79.226 27.88,-38.161 41.825,-81.126 41.825,-128.906 -0.01,-39.771 -9.818,-76.454 -29.414,-110.049 z"
       id="path5047" /></g><g
     id="g5051" /><g
     id="g5053" /><g
     id="g5055" /><g
     id="g5057" /><g
     id="g5059" /><g
     id="g5061" /><g
     id="g5063" /><g
     id="g5065" /><g
     id="g5067" /><g
     id="g5069" /><g
     id="g5071" /><g
     id="g5073" /><g
     id="g5075" /><g
     id="g5077" /><g
     id="g5079" /><g
     id="g715"
     transform="translate(0.42883543,435.47594)"><g
       id="g6201"
       style="filter:url(#filter6254)"><path
         d="M 409.132,114.573 C 389.524,80.977 362.927,54.379 329.334,34.773 295.736,15.166 259.057,5.365 219.271,5.365 c -39.781,0 -76.472,9.804 -110.063,29.408 -33.596,19.605 -60.192,46.204 -79.8,79.8 C 9.803,148.168 0,184.854 0,224.63 c 0,47.78 13.94,90.745 41.827,128.906 27.884,38.164 63.906,64.572 108.063,79.227 5.14,0.954 8.945,0.283 11.419,-1.996 2.475,-2.282 3.711,-5.14 3.711,-8.562 0,-0.571 -0.049,-5.708 -0.144,-15.417 -0.098,-9.709 -0.144,-18.179 -0.144,-25.406 l -6.567,1.136 c -4.187,0.767 -9.469,1.092 -15.846,1 -6.374,-0.089 -12.991,-0.757 -19.842,-1.999 -6.854,-1.231 -13.229,-4.086 -19.13,-8.559 -5.898,-4.473 -10.085,-10.328 -12.56,-17.556 l -2.855,-6.57 c -1.903,-4.374 -4.899,-9.233 -8.992,-14.559 -4.093,-5.331 -8.232,-8.945 -12.419,-10.848 l -1.999,-1.431 c -1.332,-0.951 -2.568,-2.098 -3.711,-3.429 -1.142,-1.331 -1.997,-2.663 -2.568,-3.997 -0.572,-1.335 -0.098,-2.43 1.427,-3.289 1.525,-0.859 4.281,-1.276 8.28,-1.276 l 5.708,0.853 c 3.807,0.763 8.516,3.042 14.133,6.851 5.614,3.806 10.229,8.754 13.846,14.842 4.38,7.806 9.657,13.754 15.846,17.847 6.184,4.093 12.419,6.136 18.699,6.136 6.28,0 11.704,-0.476 16.274,-1.423 4.565,-0.952 8.848,-2.383 12.847,-4.285 1.713,-12.758 6.377,-22.559 13.988,-29.41 -10.848,-1.14 -20.601,-2.857 -29.264,-5.14 -8.658,-2.286 -17.605,-5.996 -26.835,-11.14 -9.235,-5.137 -16.896,-11.516 -22.985,-19.126 -6.09,-7.614 -11.088,-17.61 -14.987,-29.979 -3.901,-12.374 -5.852,-26.648 -5.852,-42.826 0,-23.035 7.52,-42.637 22.557,-58.817 -7.044,-17.318 -6.379,-36.732 1.997,-58.24 5.52,-1.715 13.706,-0.428 24.554,3.853 10.85,4.283 18.794,7.952 23.84,10.994 5.046,3.041 9.089,5.618 12.135,7.708 17.705,-4.947 35.976,-7.421 54.818,-7.421 18.842,0 37.117,2.474 54.823,7.421 l 10.849,-6.849 c 7.419,-4.57 16.18,-8.758 26.262,-12.565 10.088,-3.805 17.802,-4.853 23.134,-3.138 8.562,21.509 9.325,40.922 2.279,58.24 15.036,16.18 22.559,35.787 22.559,58.817 0,16.178 -1.958,30.497 -5.853,42.966 -3.9,12.471 -8.941,22.457 -15.125,29.979 -6.191,7.521 -13.901,13.85 -23.131,18.986 -9.232,5.14 -18.182,8.85 -26.84,11.136 -8.662,2.286 -18.415,4.004 -29.263,5.146 9.894,8.562 14.842,22.077 14.842,40.539 v 60.237 c 0,3.422 1.19,6.279 3.572,8.562 2.379,2.279 6.136,2.95 11.276,1.995 44.163,-14.653 80.185,-41.062 108.068,-79.226 27.88,-38.161 41.825,-81.126 41.825,-128.906 -0.01,-39.771 -9.818,-76.454 -29.414,-110.049 z"
         id="path6199" /></g><g
       id="g6203" /><g
       id="g6205" /><g
       id="g6207" /><g
       id="g6209" /><g
       id="g6211" /><g
       id="g6213" /><g
       id="g6215" /><g
       id="g6217" /><g
       id="g6219" /><g
       id="g6221" /><g
       id="g6223" /><g
       id="g6225" /><g
       id="g6227" /><g
       id="g6229" /><g
       id="g6231" /></g></svg>
