<?xml version="1.0" encoding="UTF-8" standalone="no"?>
<svg
   xmlns:dc="http://purl.org/dc/elements/1.1/"
   xmlns:cc="http://creativecommons.org/ns#"
   xmlns:rdf="http://www.w3.org/1999/02/22-rdf-syntax-ns#"
   xmlns:svg="http://www.w3.org/2000/svg"
   xmlns="http://www.w3.org/2000/svg"
   xmlns:sodipodi="http://sodipodi.sourceforge.net/DTD/sodipodi-0.dtd"
   xmlns:inkscape="http://www.inkscape.org/namespaces/inkscape"
   id="RSSicon"
   viewBox="0 0 8 8"
   width="256"
   height="256"
   version="1.1"
   sodipodi:docname="rss.svg"
   inkscape:version="0.92.4 (5da689c313, 2019-01-14)">
  <metadata
     id="metadata3797">
    <rdf:RDF>
      <cc:Work
         rdf:about="">
        <dc:format>image/svg+xml</dc:format>
        <dc:type
           rdf:resource="http://purl.org/dc/dcmitype/StillImage" />
      </cc:Work>
    </rdf:RDF>
  </metadata>
  <defs
     id="defs3795" />
  <sodipodi:namedview
     pagecolor="#ffffff"
     bordercolor="#666666"
     borderopacity="1"
     objecttolerance="10"
     gridtolerance="10"
     guidetolerance="10"
     inkscape:pageopacity="0"
     inkscape:pageshadow="2"
     inkscape:window-width="1918"
     inkscape:window-height="1059"
     id="namedview3793"
     showgrid="false"
     inkscape:zoom="5.5117188"
     inkscape:cx="128"
     inkscape:cy="128"
     inkscape:window-x="1920"
     inkscape:window-y="19"
     inkscape:window-maximized="0"
     inkscape:current-layer="RSSicon" />
  <title
     id="title3780">RSS feed icon</title>
  <style
     type="text/css"
     id="style3782">
    .button {stroke: none; fill: orange;}
    .symbol {stroke: none; fill: white;}
  </style>
  <rect
     class="button"
     width="8"
     height="8"
     rx="1.5"
     id="rect3784" />
  <circle
     class="symbol"
     cx="2"
     cy="6"
     r="1"
     id="circle3786" />
  <path
     class="symbol"
     d="m 1,4 a 3,3 0 0 1 3,3 h 1 a 4,4 0 0 0 -4,-4 z"
     id="path3788" />
  <path
     class="symbol"
     d="m 1,2 a 5,5 0 0 1 5,5 h 1 a 6,6 0 0 0 -6,-6 z"
     id="path3790" />
  <path
     style="fill:none;stroke-width:0.29257143"
     d="m 60.2112,223.64391 c -13.609535,-1.61886 -24.671414,-11.89579 -27.485114,-25.53479 -0.664729,-3.22218 -0.620334,-9.20902 0.09357,-12.61883 2.263099,-10.80917 10.227219,-19.89473 20.626945,-23.53147 9.497967,-3.32139 19.780928,-2.00798 28.414881,3.62936 2.414217,1.5763 7.056679,6.28601 8.775688,8.9028 1.738875,2.64703 3.419763,6.4762 4.272041,9.73199 0.806011,3.07905 1.089264,9.4871 0.564221,12.76439 C 92.77536,213.8286 77.129245,225.65631 60.2112,223.64391 Z"
     id="path3801"
     inkscape:connector-curvature="0"
     transform="scale(0.03125)" />
  <path
     style="fill:none;stroke-width:0.29257143"
     d="m 60.2112,223.64391 c -13.609535,-1.61886 -24.671414,-11.89579 -27.485114,-25.53479 -0.664729,-3.22218 -0.620334,-9.20902 0.09357,-12.61883 2.263099,-10.80917 10.227219,-19.89473 20.626945,-23.53147 9.497967,-3.32139 19.780928,-2.00798 28.414881,3.62936 2.414217,1.5763 7.056679,6.28601 8.775688,8.9028 1.738875,2.64703 3.419763,6.4762 4.272041,9.73199 0.806011,3.07905 1.089264,9.4871 0.564221,12.76439 C 92.77536,213.8286 77.129245,225.65631 60.2112,223.64391 Z"
     id="path3803"
     inkscape:connector-curvature="0"
     transform="scale(0.03125)" />
  <path
     style="fill:none;stroke-width:0.29257143"
     d="m 128.11717,221.40343 c -0.82525,-12.47011 -2.01324,-19.07738 -5.06215,-28.15429 C 118.26587,178.9914 110.58525,166.7333 99.586727,155.79429 89.132942,145.39706 77.02913,137.85187 63.149618,133.08037 54.189583,130.00009 43.11488,128 35.019058,128 H 31.978057 V 112.00999 96.019978 l 4.608,0.197227 c 39.982598,1.711295 75.604233,20.739875 99.039013,52.905265 7.28317,9.9965 13.87373,22.89759 17.81905,34.88095 3.84121,11.66714 6.38765,26.57083 6.38765,37.38535 v 2.57466 h -15.77259 -15.77259 z"
     id="path3805"
     inkscape:connector-curvature="0"
     transform="scale(0.03125)" />
  <path
     style="fill:none;stroke-width:0.29257143"
     d="m 192.0107,220.23314 c -0.004,-4.22233 -0.62537,-12.45042 -1.32519,-17.5607 -4.25644,-31.08164 -17.1515,-59.66057 -37.65317,-83.44958 -4.39508,-5.09981 -13.04401,-13.63706 -18.05291,-17.8198 C 113.22643,83.237973 87.851146,71.375427 60.064914,66.381704 52.245293,64.976369 41.660078,63.935763 35.1232,63.929751 l -3.145143,-0.0029 V 47.981714 32.036571 h 1.273678 c 2.872614,0 13.499638,0.623397 17.597179,1.032277 18.850664,1.881043 37.117072,6.465288 54.710856,13.730559 5.96863,2.464716 17.52629,8.180696 22.82057,11.286191 50.62534,29.695538 84.48665,79.493692 93.29603,137.205832 1.20799,7.91382 2.21198,19.83218 2.2243,26.40457 l 0.004,2.26743 h -15.94514 -15.94514 l -0.004,-3.73029 z"
     id="path3807"
     inkscape:connector-curvature="0"
     transform="scale(0.03125)" />
  <path
     style="fill:none;stroke-width:0.18143161"
     d="m 192.08137,222.29908 c -0.001,-6.63329 -0.9157,-16.85927 -2.19183,-24.50603 C 183.11002,157.16932 161.11889,120.87767 128.30843,96.166636 120.38758,90.201085 112.55797,85.359954 103.54302,80.853917 83.567299,70.869246 62.43514,65.314046 39.95124,64.136975 c -1.89596,-0.09926 -4.447342,-0.180887 -5.669738,-0.1814 l -2.222537,-9.33e-4 V 47.988661 32.022679 l 1.043232,0.0024 c 2.394876,0.0056 10.547589,0.384424 13.83416,0.642865 32.399823,2.547771 63.447043,13.180648 90.551113,31.011438 24.97903,16.432797 45.95411,38.693648 60.82987,64.558738 15.91104,27.66517 24.76999,59.13043 25.4865,90.52321 l 0.11905,5.21636 h -15.92062 -15.92063 l -3.6e-4,-1.67824 z"
     id="path3809"
     inkscape:connector-curvature="0"
     transform="scale(0.03125)" />
  <path
     style="fill:none;stroke-width:0.18143161"
     d="m 128.03585,222.02693 c -5.3e-4,-2.31423 -0.2506,-5.91233 -0.64626,-9.29837 -3.22084,-27.5639 -18.4598,-52.63194 -41.479753,-68.23412 -6.743894,-4.57079 -14.745796,-8.58318 -22.399084,-11.23156 -9.164352,-3.17128 -18.488143,-4.91849 -27.777798,-5.20538 l -3.67399,-0.11346 v -15.938 -15.938003 l 1.587527,0.0026 c 4.213275,0.007 11.948567,0.634094 17.009213,1.378943 27.592469,4.06119 53.214885,17.12849 72.759295,37.10688 5.60704,5.73154 10.4456,11.68317 14.86266,18.28172 11.80542,17.63583 18.99817,37.79146 21.04876,58.98319 0.25703,2.65631 0.64096,9.41504 0.64156,11.29412 l 2.7e-4,0.8618 h -15.96598 -15.96598 l -3.7e-4,-1.95039 z"
     id="path3811"
     inkscape:connector-curvature="0"
     transform="scale(0.03125)" />
  <path
     style="fill:none;stroke-width:0.18143161"
     d="m 60.997307,223.77278 c -11.099921,-1.05703 -20.782609,-7.78781 -25.675439,-17.8479 -1.843411,-3.79022 -2.753532,-7.1392 -3.118352,-11.47462 -0.910461,-10.81967 3.921575,-21.41188 12.802112,-28.06327 11.9777,-8.97111 28.851105,-8.25725 40.122083,1.69743 9.542482,8.42805 13.16405,21.85759 9.165223,33.98658 -0.767353,2.32748 -2.854518,6.43911 -4.258804,8.38967 -5.521603,7.6695 -13.723388,12.37478 -23.217165,13.31945 -2.22081,0.22097 -3.438279,0.21944 -5.819658,-0.007 z"
     id="path3813"
     inkscape:connector-curvature="0"
     transform="scale(0.03125)" />
  <path
     style="fill:none;stroke-width:0.18143161"
     d="m 44.214883,255.78816 c -8.588751,-0.85287 -15.778178,-3.30115 -22.406804,-7.63036 -2.754727,-1.79913 -4.665262,-3.34407 -7.231581,-5.84778 -8.0277791,-7.83189 -12.8789096,-17.69488 -14.18187687,-28.8336 -0.40403899,-3.45402 -0.40403899,-167.498816 0,-170.952842 C 1.0991235,36.50097 2.7351967,31.176894 5.5457383,25.760919 7.7616716,21.490766 10.175741,18.17954 13.726266,14.540211 21.08,7.0025474 29.990366,2.3996905 40.734052,0.58870747 L 43.035578,0.20075665 126.4034,0.13652585 c 59.71999,-0.04601133 84.03257,-0.007481 85.71134,0.13583337 8.12017,0.69321198 15.6342,3.31164858 22.39218,7.80307078 12.30954,8.181043 19.99284,21.201907 21.25009,36.012451 0.25551,3.009976 0.25551,164.814269 0,167.824239 -1.56334,18.41636 -13.28482,34.12244 -30.46239,40.81774 -3.73244,1.45479 -8.63649,2.59012 -12.89264,2.98473 -1.44686,0.13415 -27.44833,0.18475 -84.81927,0.16503 -45.50305,-0.0156 -83.018571,-0.0568 -83.367827,-0.0915 z M 68.7683,223.68977 c 4.902979,-0.68264 9.69121,-2.64027 14.091516,-5.76118 2.032172,-1.44131 5.781654,-5.22899 7.258164,-7.3321 7.685147,-10.94657 7.912579,-25.32553 0.574656,-36.33143 -8.106611,-12.15882 -23.382376,-17.33539 -37.117364,-12.57813 -10.714783,3.71119 -18.728329,12.81695 -20.97295,23.8315 -2.227572,10.93087 1.331964,22.18477 9.424951,29.79807 7.216537,6.78879 16.72872,9.7673 26.741027,8.37327 z m 91.26102,0.33291 c 0.14715,-0.24274 -0.23086,-8.93397 -0.51462,-11.83246 -0.78051,-7.97245 -2.12556,-15.24889 -4.17454,-22.58341 -8.22754,-29.45124 -26.61088,-54.89305 -51.97857,-71.93627 C 90.127565,108.7793 75.338732,102.44527 59.727286,98.982059 51.778894,97.218803 44.264862,96.288585 35.370092,95.9667 l -3.492558,-0.126389 v 16.053609 16.05361 l 1.224663,0.11566 c 0.673565,0.0636 1.877817,0.11671 2.676116,0.11798 2.00565,0.003 7.307062,0.48299 10.250886,0.9277 25.213406,3.80891 47.577098,17.15136 62.763311,37.44535 8.98649,12.00904 15.11644,26.19517 17.67998,40.91562 0.85818,4.92792 1.38236,10.32972 1.38236,14.24561 0,1.21077 0.0544,2.25583 0.12096,2.32234 0.16795,0.16795 31.95162,0.15297 32.05351,-0.0151 z m 63.98418,-3.08434 c 0,-8.32047 -1.05138,-19.65704 -2.7294,-29.43728 -4.22622,-24.63224 -13.2323,-48.18847 -26.60544,-69.58884 C 169.4419,81.527054 129.57051,51.794555 83.404111,38.933645 67.968653,34.633676 51.10016,32.190037 35.506166,31.994951 l -3.537917,-0.04426 -0.04633,16.06405 -0.04633,16.064051 4.763556,0.1168 c 20.467019,0.501842 40.948042,5.140143 60.281626,13.651876 2.949904,1.298715 9.795489,4.715571 12.700219,6.339101 16.65722,9.310154 31.34492,21.278241 43.52716,35.467581 3.37808,3.93463 4.29817,5.08281 7.22152,9.01173 17.4996,23.51911 28.22641,51.61564 30.88163,80.88763 0.34764,3.83238 0.6462,9.48419 0.64774,12.26174 0,1.15589 0.0556,2.15603 0.12214,2.22254 0.0665,0.0665 7.29203,0.12096 16.0567,0.12096 h 15.93574 z"
     id="path3815"
     inkscape:connector-curvature="0"
     transform="scale(0.03125)" />
</svg>
